opsz144_wght1000.ufo
<glyph name="B" format="2">
	<unicode hex="0042"/>
	<advance width="1189"/>
	<outline>
		<contour>
			<point x="82.9992675781" y="0" type="line"/>
			<point x="82.9992675781" y="99.0002441406" type="line"/>
			<point x="289.9943847656" y="134.0002441406" type="line"/>
			<point x="291.9943847656" y="766.3254394531" type="line"/>
			<point x="289.9943847656" y="1356.8397216797" type="line"/>
			<point x="82.9992675781" y="1390.8397216797" type="line"/>
			<point x="82.9992675781" y="1500" type="line"/>
			<point x="608.7448120117" y="1500" type="line" smooth="yes"/>
			<point x="850.2387695312" y="1500"/>
			<point x="1058.9354248047" y="1321"/>
			<point x="1058.9354248047" y="1172" type="qcurve" smooth="yes"/>
			<point x="1059.9354248047" y="1035"/>
			<point x="922.1458740234" y="859"/>
			<point x="862" y="831" type="qcurve"/>
			<point x="862" y="821" type="line"/>
			<point x="937.9548339844" y="802"/>
			<point x="1161.4466552734" y="613"/>
			<point x="1161.4466552734" y="442" type="qcurve" smooth="yes"/>
			<point x="1161.4466552734" y="250"/>
			<point x="868.412902832" y="0"/>
			<point x="673.1475830078" y="0" type="qcurve" smooth="yes"/>
		</contour>
		<contour>
			<point x="466.9890136719" y="138.0388183594" type="line"/>
			<point x="499.8493652344" y="112.740234375" type="line"/>
			<point x="667.8487548828" y="112.740234375" type="line" smooth="yes"/>
			<point x="831.1800537109" y="112.740234375"/>
			<point x="976.951965332" y="308.3690185547"/>
			<point x="976.951965332" y="454" type="qcurve" smooth="yes"/>
			<point x="976.951965332" y="576.9683837891"/>
			<point x="834.9212646484" y="746.6787109375"/>
			<point x="695.1505126953" y="746.6787109375" type="qcurve" smooth="yes"/>
			<point x="466.4541015625" y="746.6787109375" type="line"/>
			<point x="462.9890136719" y="735.0455322266" type="line"/>
		</contour>
		<contour>
			<point x="463.9890136719" y="873.8195800781" type="line"/>
			<point x="464.8378295898" y="857.9028320312" type="line"/>
			<point x="665.3369140625" y="857.9028320312" type="line" smooth="yes"/>
			<point x="780.7917480469" y="857.9028320312"/>
			<point x="893.4407348633" y="1080.1881103516"/>
			<point x="893.4407348633" y="1169" type="qcurve" smooth="yes"/>
			<point x="893.4407348633" y="1285.3424072266"/>
			<point x="770.7219238281" y="1385.5180664062"/>
			<point x="656.2670898438" y="1385.5180664062" type="qcurve" smooth="yes"/>
			<point x="493.8493652344" y="1385.5180664062" type="line"/>
			<point x="466.9890136719" y="1370.8357543945" type="line"/>
		</contour>
	</outline>
	<anchor name="bottom" x="614" y="0"/>
	<anchor name="top" x="614" y="1500"/>
</glyph>
<glyph name="D" format="2">
	<unicode hex="0044"/>
	<advance width="1599"/>
	<outline>
		<contour>
			<point x="82" y="0" type="line"/>
			<point x="82" y="100" type="line"/>
			<point x="290" y="135" type="line"/>
			<point x="292" y="754" type="line"/>
			<point x="290" y="1352" type="line"/>
			<point x="82" y="1386" type="line"/>
			<point x="82" y="1500" type="line"/>
			<point x="718" y="1500" type="line" smooth="yes"/>
			<point x="1114" y="1500"/>
			<point x="1518" y="1149"/>
			<point x="1518" y="777" type="qcurve" smooth="yes"/>
			<point x="1518" y="410"/>
			<point x="1075" y="0"/>
			<point x="678" y="0" type="qcurve" smooth="yes"/>
		</contour>
		<contour>
			<point x="470" y="120" type="line"/>
			<point x="504" y="114"/>
			<point x="657" y="108"/>
			<point x="732" y="108" type="qcurve" smooth="yes"/>
			<point x="1042" y="108"/>
			<point x="1316" y="569"/>
			<point x="1319" y="761" type="qcurve" smooth="yes"/>
			<point x="1323" y="988"/>
			<point x="1013" y="1385"/>
			<point x="690" y="1385" type="qcurve" smooth="yes"/>
			<point x="640" y="1385"/>
			<point x="506" y="1373"/>
			<point x="470" y="1368" type="qcurve"/>
			<point x="468" y="754" type="line"/>
		</contour>
	</outline>
	<anchor name="bottom" x="686" y="0"/>
	<anchor name="center" x="438" y="754"/>
	<anchor name="top" x="686" y="1500"/>
	<anchor name="liga" x="1590" y="0"/>
</glyph>
<glyph name="F" format="2">
	<unicode hex="0046"/>
	<advance width="1112"/>
	<outline>
		<contour>
			<point x="82.9992675781" y="0" type="line"/>
			<point x="82.9992675781" y="99.0002441406" type="line"/>
			<point x="289.9943847656" y="134.0002441406" type="line"/>
			<point x="291.9943847656" y="761" type="line"/>
			<point x="289.9943847656" y="1356.8397216797" type="line"/>
			<point x="82.9992675781" y="1390.8397216797" type="line"/>
			<point x="82.9992675781" y="1500" type="line"/>
			<point x="1065.111328125" y="1500" type="line"/>
			<point x="1067.111328125" y="1087.546875" type="line"/>
			<point x="951.1146240234" y="1087.546875" type="line"/>
			<point x="870.1146240234" y="1385.7114257812" type="line"/>
			<point x="517.2890014648" y="1385.7114257812" type="line"/>
			<point x="465.2890014648" y="1358.7114257812" type="line"/>
			<point x="470.2890014648" y="767" type="line"/>
			<point x="475.2890014648" y="134.0002441406" type="line"/>
			<point x="723.2067260742" y="100.0002441406" type="line"/>
			<point x="723.2067260742" y="0" type="line"/>
		</contour>
		<contour>
			<point x="413.2922973633" y="742.2265625" type="line"/>
			<point x="413.2922973633" y="839.2573242188" type="line"/>
			<point x="759.2192382812" y="850.8701171875" type="line"/>
			<point x="820.2192382812" y="1016.029296875" type="line"/>
			<point x="929.2159423828" y="1016.029296875" type="line"/>
			<point x="929.2159423828" y="531.91015625" type="line"/>
			<point x="823.2192382812" y="531.91015625" type="line"/>
			<point x="759.2192382812" y="730.6137695312" type="line"/>
		</contour>
	</outline>
	<anchor name="bottom" x="578" y="0"/>
	<anchor name="top" x="622" y="1500"/>
</glyph>
<glyph name="G" format="2">
	<unicode hex="0047"/>
	<advance width="1540"/>
	<outline>
		<contour>
			<point x="80" y="724" type="qcurve" smooth="yes"/>
			<point x="80" y="1109.4881591797"/>
			<point x="514.9821166992" y="1519.1149902344"/>
			<point x="836.9895019531" y="1519.1149902344" type="qcurve" smooth="yes"/>
			<point x="1022.9821166992" y="1519.1149902344"/>
			<point x="1155.4959716797" y="1454.6109619141"/>
			<point x="1224.7077636719" y="1424.322265625" type="qcurve"/>
			<point x="1268.8194580078" y="1489" type="line"/>
			<point x="1390.3072509766" y="1489" type="line"/>
			<point x="1390.3072509766" y="1004.6796875" type="line"/>
			<point x="1265.4680175781" y="1004.6796875" type="line"/>
			<point x="1204.6379394531" y="1244" type="line" smooth="yes"/>
			<point x="1180.6379394531" y="1337"/>
			<point x="1019.973449707" y="1389.5041503906"/>
			<point x="831.6592407227" y="1391.5041503906" type="qcurve" smooth="yes"/>
			<point x="582.7014160156" y="1393.5041503906"/>
			<point x="277.3941650391" y="1030.40625"/>
			<point x="275.3941650391" y="750" type="qcurve" smooth="yes"/>
			<point x="273.3941650391" y="530.2635498047"/>
			<point x="622.4420776367" y="101.7219238281"/>
			<point x="867.192565918" y="101.7219238281" type="qcurve" smooth="yes"/>
			<point x="990.9834594727" y="101.7219238281"/>
			<point x="1195.259765625" y="100.9461669922"/>
			<point x="1266.6152954102" y="99.0629882812" type="qcurve"/>
			<point x="1266.6152954102" y="560.9997558594" type="line"/>
			<point x="1088.7353515625" y="590.9997558594" type="line"/>
			<point x="1088.7353515625" y="705" type="line"/>
			<point x="1569.3531494141" y="705" type="line"/>
			<point x="1569.3531494141" y="590.9997558594" type="line"/>
			<point x="1435.0100708008" y="560.9997558594" type="line"/>
			<point x="1435.0100708008" y="164" type="line"/>
			<point x="1352.132019043" y="77.3348388672"/>
			<point x="1078.6699829102" y="-17.1149902344"/>
			<point x="884.4232788086" y="-17.1149902344" type="qcurve" smooth="yes"/>
			<point x="557.8419189453" y="-17.1149902344"/>
			<point x="80" y="354.7463378906"/>
		</contour>
	</outline>
	<anchor name="bottom" x="872" y="0"/>
	<anchor name="top" x="836" y="1500"/>
</glyph>
<glyph name="I" format="2">
	<unicode hex="0049"/>
	<advance width="788"/>
	<outline>
		<contour>
			<point x="85.4669189453" y="0" type="line"/>
			<point x="85.4669189453" y="99.0002441406" type="line"/>
			<point x="303.9233398438" y="134.0002441406" type="line"/>
			<point x="305.9233398438" y="754" type="line"/>
			<point x="303.9233398438" y="1356.8397216797" type="line"/>
			<point x="85.4669189453" y="1390.8397216797" type="line"/>
			<point x="85.4669189453" y="1500" type="line"/>
			<point x="702.6743774414" y="1500" type="line"/>
			<point x="702.6743774414" y="1390.8397216797" type="line"/>
			<point x="484.217956543" y="1356.8397216797" type="line"/>
			<point x="482.217956543" y="754" type="line"/>
			<point x="484.217956543" y="134.0002441406" type="line"/>
			<point x="702.6743774414" y="99.0002441406" type="line"/>
			<point x="702.6743774414" y="0" type="line"/>
		</contour>
	</outline>
	<anchor name="bottom" x="390" y="0"/>
	<anchor name="ogonek" x="526" y="0"/>
	<anchor name="top" x="390" y="1500"/>
	<anchor name="tonos" x="0" y="1500"/>
	<anchor name="yu_dash" x="380" y="755"/>
	<anchor name="_Yeru_I" x="82" y="0"/>
	<anchor name="liga" x="780" y="0"/>
</glyph>
<glyph name="K" format="2">
	<unicode hex="004B"/>
	<advance width="1308"/>
	<outline>
		<contour>
			<point x="82.9992675781" y="0" type="line"/>
			<point x="82.9992675781" y="99.0002441406" type="line"/>
			<point x="289.9943847656" y="134.0002441406" type="line"/>
			<point x="291.9943847656" y="754" type="line"/>
			<point x="289.9943847656" y="1356.8397216797" type="line"/>
			<point x="82.9992675781" y="1390.8397216797" type="line"/>
			<point x="82.9992675781" y="1500" type="line"/>
			<point x="680.8228149414" y="1500" type="line"/>
			<point x="680.8228149414" y="1390.8397216797" type="line"/>
			<point x="468.2890014648" y="1356.8397216797" type="line"/>
			<point x="463.2890014648" y="754" type="line"/>
			<point x="468.2890014648" y="134.0002441406" type="line"/>
			<point x="664.2841186523" y="99.0002441406" type="line"/>
			<point x="664.2841186523" y="0" type="line"/>
		</contour>
		<contour>
			<point x="357.4260864258" y="459.5012207031" type="line"/>
			<point x="354.4260864258" y="605.8324584961" type="line"/>
			<point x="1043.7451782227" y="1362.8397216797" type="line"/>
			<point x="829.8640136719" y="1391.8397216797" type="line"/>
			<point x="829.8640136719" y="1500" type="line"/>
			<point x="1456.1283569336" y="1500" type="line"/>
			<point x="1456.1283569336" y="1391.8397216797" type="line"/>
			<point x="1193.5171508789" y="1362.8397216797" type="line"/>
			<point x="740.4730834961" y="899.5844726562" type="line"/>
			<point x="713.6392211914" y="865.4835205078" type="line"/>
		</contour>
		<contour>
			<point x="599.1295166016" y="768.5035400391" type="line"/>
			<point x="673.4750976562" y="928.7604980469" type="line"/>
			<point x="1250.6592407227" y="134.0002441406" type="line"/>
			<point x="1438.0017089844" y="99.0002441406" type="line"/>
			<point x="1438.0017089844" y="0" type="line"/>
			<point x="918.1150512695" y="0" type="line"/>
			<point x="918.1150512695" y="99.0002441406" type="line"/>
			<point x="1059.2649536133" y="134.0002441406" type="line"/>
		</contour>
	</outline>
	<anchor name="bottom" x="812" y="0"/>
	<anchor name="top" x="770" y="1500"/>
</glyph>
<glyph name="M" format="2">
	<unicode hex="004D"/>
	<advance width="2096"/>
	<outline>
		<contour>
			<point x="81.9992675781" y="0" type="line"/>
			<point x="81.9992675781" y="99.0002441406" type="line"/>
			<point x="308.9943847656" y="134.0002441406" type="line"/>
			<point x="310.9943847656" y="747" type="line"/>
			<point x="310.9943847656" y="1357.8397216797" type="line"/>
			<point x="81.9992675781" y="1391.8397216797" type="line"/>
			<point x="81.9992675781" y="1500" type="line"/>
			<point x="608.1104125977" y="1501.9837036133" type="line"/>
			<point x="867.2240600586" y="805.5521850586" type="line"/>
			<point x="1004" y="370" type="line"/>
			<point x="1046" y="256" type="line"/>
			<point x="1056" y="256" type="line"/>
			<point x="1098" y="370" type="line"/>
			<point x="1306.9427490234" y="901.5931396484" type="line"/>
			<point x="1515.4716796875" y="1500" type="line"/>
			<point x="2013.3664550781" y="1500" type="line"/>
			<point x="2013.3664550781" y="1391.8397216797" type="line"/>
			<point x="1808.3713378906" y="1357.8397216797" type="line"/>
			<point x="1806.0879516602" y="751" type="line"/>
			<point x="1808.3713378906" y="134.0002441406" type="line"/>
			<point x="2013.3664550781" y="99.0002441406" type="line"/>
			<point x="2013.3664550781" y="0" type="line"/>
			<point x="1418.5975341797" y="0" type="line"/>
			<point x="1419.4476928711" y="99.0002441406" type="line"/>
			<point x="1617.9765625" y="134.0002441406" type="line"/>
			<point x="1620.9765625" y="749" type="line"/>
			<point x="1646" y="1210" type="line"/>
			<point x="1650" y="1329" type="line"/>
			<point x="1640" y="1331" type="line"/>
			<point x="1601" y="1224" type="line"/>
			<point x="1416.114074707" y="845.8990478516" type="line"/>
			<point x="1136.5666503906" y="0" type="line"/>
			<point x="970.0272827148" y="0" type="line"/>
			<point x="684.6789550781" y="742.3668823242" type="line"/>
			<point x="458" y="1229" type="line"/>
			<point x="418" y="1336" type="line"/>
			<point x="408" y="1334" type="line"/>
			<point x="413" y="1215" type="line"/>
			<point x="435.2829589844" y="747" type="line"/>
			<point x="436.2829589844" y="134.0002441406" type="line"/>
			<point x="666.7393798828" y="99.0002441406" type="line"/>
			<point x="666.7393798828" y="0" type="line"/>
		</contour>
	</outline>
	<anchor name="bottom" x="1025" y="0"/>
	<anchor name="top" x="1058" y="1500"/>
</glyph>
<glyph name="N" format="2">
	<unicode hex="004E"/>
	<advance width="1559"/>
	<outline>
		<contour>
			<point x="82.9992675781" y="0" type="line"/>
			<point x="82.9992675781" y="99.0002441406" type="line"/>
			<point x="303.9943847656" y="134.0002441406" type="line"/>
			<point x="307.9943847656" y="753" type="line"/>
			<point x="307.9943847656" y="1357.8397216797" type="line"/>
			<point x="82.9992675781" y="1391.8397216797" type="line"/>
			<point x="82.9992675781" y="1500" type="line"/>
			<point x="500.2036743164" y="1500" type="line"/>
			<point x="925.7014770508" y="768.2992553711" type="line"/>
			<point x="1105.6905517578" y="422.3319091797" type="line"/>
			<point x="1160.6092529297" y="323.69921875" type="line"/>
			<point x="1161.3092651367" y="324.2659912109" type="line"/>
			<point x="1159.4591064453" y="457.2659912109" type="line"/>
			<point x="1156.3762207031" y="762.9992675781" type="line"/>
			<point x="1150.9429931641" y="1357.8397216797" type="line"/>
			<point x="906.0252685547" y="1391.8397216797" type="line"/>
			<point x="906.0252685547" y="1500" type="line"/>
			<point x="1504.4849853516" y="1500" type="line"/>
			<point x="1504.4849853516" y="1391.8397216797" type="line"/>
			<point x="1280.4898681641" y="1357.8397216797" type="line"/>
			<point x="1276.4898681641" y="738.9992675781" type="line"/>
			<point x="1276.4898681641" y="0" type="line"/>
			<point x="1153.1232910156" y="0" type="line"/>
			<point x="796.9071655273" y="655.5821533203" type="line"/>
			<point x="472.258605957" y="1273.4619140625" type="line"/>
			<point x="422.3568115234" y="1362.9779663086" type="line"/>
			<point x="422.3568115234" y="1362.4111938477" type="line"/>
			<point x="426.70703125" y="1243.4111938477" type="line"/>
			<point x="427.5734863281" y="768.0012207031" type="line"/>
			<point x="429.5734863281" y="134.0002441406" type="line"/>
			<point x="674.0299072266" y="99.0002441406" type="line"/>
			<point x="674.0299072266" y="0" type="line"/>
		</contour>
	</outline>
	<anchor name="bottom" x="800" y="0"/>
	<anchor name="top" x="800" y="1500"/>
	<anchor name="engtail" x="1324" y="0"/>
	<anchor name="liga" x="1600" y="0"/>
</glyph>
<glyph name="O" format="2">
	<unicode hex="004F"/>
	<advance width="1661"/>
	<outline>
		<contour>
			<point x="80" y="747" type="qcurve" smooth="yes"/>
			<point x="80" y="1106.4498291016"/>
			<point x="528.020324707" y="1520.1149902344"/>
			<point x="831.6113891602" y="1520.1149902344" type="qcurve" smooth="yes"/>
			<point x="1133.3536376953" y="1520.1149902344"/>
			<point x="1581.141418457" y="1124.4498291016"/>
			<point x="1581.141418457" y="772" type="qcurve" smooth="yes"/>
			<point x="1581.141418457" y="390.5501708984"/>
			<point x="1137.5698852539" y="-14.1149902344"/>
			<point x="835.3788452148" y="-14.1149902344" type="qcurve" smooth="yes"/>
			<point x="519.9690551758" y="-14.1149902344"/>
			<point x="80" y="379.5501708984"/>
		</contour>
		<contour>
			<point x="270.3940429688" y="761" type="qcurve" smooth="yes"/>
			<point x="270.3940429688" y="498.8723144531"/>
			<point x="564.5060424805" y="107.3991699219"/>
			<point x="841.3788452148" y="107.3991699219" type="qcurve" smooth="yes"/>
			<point x="1132.3739624023" y="107.3991699219"/>
			<point x="1391.7473754883" y="470.3173828125"/>
			<point x="1391.7473754883" y="762" type="qcurve" smooth="yes"/>
			<point x="1391.7473754883" y="1030.30859375"/>
			<point x="1081.0936889648" y="1394.4719238281"/>
			<point x="822.3788452148" y="1394.4719238281" type="qcurve" smooth="yes"/>
			<point x="551.3837280273" y="1394.4719238281"/>
			<point x="270.3940429688" y="1042.9956054688"/>
		</contour>
	</outline>
	<anchor name="bottom" x="832" y="0"/>
	<anchor name="center" x="832" y="750"/>
	<anchor name="ogonek" x="1064" y="0"/>
	<anchor name="top" x="832" y="1500"/>
	<anchor name="topright" x="1028" y="1500"/>
	<anchor name="tonos" x="140" y="1500"/>
	<anchor name="_yu_dash" x="169" y="755"/>
</glyph>
<glyph name="P" format="2">
	<unicode hex="0050"/>
	<advance width="1227"/>
	<outline>
		<contour>
			<point x="82.9992675781" y="0" type="line"/>
			<point x="82.9992675781" y="99.0002441406" type="line"/>
			<point x="289.9943847656" y="135.0002441406" type="line"/>
			<point x="293.2269287109" y="754" type="line"/>
			<point x="289.9943847656" y="1356.8397216797" type="line"/>
			<point x="82.9992675781" y="1390.8397216797" type="line"/>
			<point x="82.9992675781" y="1500" type="line"/>
			<point x="756.431640625" y="1500" type="line" smooth="yes"/>
			<point x="937.2495727539" y="1500"/>
			<point x="1193.5764160156" y="1277"/>
			<point x="1193.5764160156" y="1053" type="qcurve" smooth="yes"/>
			<point x="1193.5764160156" y="812"/>
			<point x="873.9198608398" y="555.9360351562"/>
			<point x="670.669921875" y="555.9360351562" type="qcurve" smooth="yes"/>
			<point x="611.3875732422" y="555.9360351562"/>
			<point x="464.2890014648" y="564.419921875"/>
			<point x="382.9635620117" y="579.8393554688" type="qcurve"/>
			<point x="391.9635620117" y="684.4506835938" type="line"/>
			<point x="460.8469848633" y="673.966796875"/>
			<point x="560.1715698242" y="664.6440429688"/>
			<point x="650.1594238281" y="664.6440429688" type="qcurve" smooth="yes"/>
			<point x="810.2805175781" y="664.6440429688"/>
			<point x="1011.6818237305" y="922.7674560547"/>
			<point x="1008.6818237305" y="1034" type="qcurve" smooth="yes"/>
			<point x="1004.6818237305" y="1197.0710449219"/>
			<point x="804.0658569336" y="1379.7114257812"/>
			<point x="645.278503418" y="1379.7114257812" type="qcurve" smooth="yes"/>
			<point x="491.2890014648" y="1379.7114257812" type="line"/>
			<point x="469.2890014648" y="1357.7114257812" type="line"/>
			<point x="467.2890014648" y="764" type="line"/>
			<point x="469.2890014648" y="134.0002441406" type="line"/>
			<point x="682.2067260742" y="99.0002441406" type="line"/>
			<point x="682.2067260742" y="0" type="line"/>
		</contour>
	</outline>
	<anchor name="bottom" x="634" y="0"/>
	<anchor name="top" x="634" y="1500"/>
</glyph>
<glyph name="Q" format="2">
	<unicode hex="0051"/>
	<advance width="1640"/>
	<outline>
		<contour>
			<point x="80" y="750.0813598633" type="qcurve" smooth="yes"/>
			<point x="80" y="1104.8249511719"/>
			<point x="552.3598022461" y="1522.0766601562"/>
			<point x="827.2974853516" y="1522.0766601562" type="qcurve" smooth="yes"/>
			<point x="1119.3167724609" y="1522.0766601562"/>
			<point x="1578.6763305664" y="1124.0574951172"/>
			<point x="1578.6763305664" y="772" type="qcurve" smooth="yes"/>
			<point x="1578.6763305664" y="398.9425048828"/>
			<point x="1090.3746948242" y="-2.9188232422"/>
			<point x="825.2973632812" y="-2.9188232422" type="qcurve" smooth="yes"/>
			<point x="515.2364501953" y="-2.9188232422"/>
			<point x="80" y="407.6632080078"/>
		</contour>
		<contour>
			<point x="270.3940429688" y="757.9186401367" type="qcurve" smooth="yes"/>
			<point x="270.3940429688" y="475.8325805664"/>
			<point x="551.8845214844" y="108.4664306641"/>
			<point x="836.8974609375" y="107.9503173828" type="qcurve" smooth="yes"/>
			<point x="1125.4365234375" y="107.4342041016"/>
			<point x="1389.2822875977" y="464.8773193359"/>
			<point x="1389.2822875977" y="762" type="qcurve" smooth="yes"/>
			<point x="1389.2822875977" y="1046.0860595703"/>
			<point x="1087.2338256836" y="1396.43359375"/>
			<point x="822.3788452148" y="1396.43359375" type="qcurve" smooth="yes"/>
			<point x="551.3837280273" y="1396.43359375"/>
			<point x="270.3940429688" y="1053.938659668"/>
		</contour>
		<contour>
			<point x="573" y="-39" type="qcurve"/>
			<point x="1290" y="-274" type="line"/>
			<point x="1350" y="-274"/>
			<point x="1442" y="-186"/>
			<point x="1475" y="-132" type="qcurve"/>
			<point x="1565" y="-184" type="line"/>
			<point x="1515" y="-288"/>
			<point x="1371" y="-429"/>
			<point x="1239" y="-429" type="qcurve"/>
			<point x="540" y="-194" type="line"/>
			<point x="479" y="-194"/>
			<point x="363" y="-236"/>
			<point x="306" y="-288" type="qcurve"/>
			<point x="238" y="-224" type="line"/>
			<point x="299" y="-132"/>
			<point x="476" y="-39"/>
		</contour>
		<contour>
			<point x="528.754699707" y="-48.7379150391" type="line"/>
			<point x="796.1171875" y="266.45703125" type="line"/>
			<point x="875.8305664062" y="177.1938476562" type="line"/>
			<point x="646.6683959961" y="-93.7416992188" type="line"/>
		</contour>
	</outline>
	<anchor name="bottom" x="832" y="0"/>
	<anchor name="top" x="823" y="1502"/>
</glyph>
<glyph name="R" format="2">
	<unicode hex="0052"/>
	<advance width="1364"/>
	<outline>
		<contour>
			<point x="83.5921630859" y="0" type="line"/>
			<point x="83.5921630859" y="99.0002441406" type="line"/>
			<point x="290.5872802734" y="134.0002441406" type="line"/>
			<point x="292.5872802734" y="787.0002441406" type="line"/>
			<point x="290.5872802734" y="1356.8397216797" type="line"/>
			<point x="83.5921630859" y="1390.8397216797" type="line"/>
			<point x="83.5921630859" y="1500" type="line"/>
			<point x="641.03125" y="1500" type="line" smooth="yes"/>
			<point x="875.7162475586" y="1500"/>
			<point x="1136.1504575668" y="1306"/>
			<point x="1136.1504575668" y="1120" type="qcurve" smooth="yes"/>
			<point x="1136.1504575668" y="957"/>
			<point x="917.7425537109" y="704.677734375"/>
			<point x="807.3544921875" y="704.677734375" type="qcurve" smooth="yes"/>
			<point x="702.1921386719" y="704.677734375"/>
			<point x="424.2127685547" y="710.7421875"/>
			<point x="359.9782104492" y="717.806640625" type="qcurve"/>
			<point x="360.9782104492" y="819.6118164062" type="line"/>
			<point x="654.997253418" y="817.6118164062" type="line" smooth="yes"/>
			<point x="828.5387573242" y="816.6118164062"/>
			<point x="960.6123046875" y="1030.5621337891"/>
			<point x="959.9913369456" y="1123" type="qcurve" smooth="yes"/>
			<point x="959.6123046875" y="1248.4744873047"/>
			<point x="824.4354858398" y="1382.7114257812"/>
			<point x="668.6481323242" y="1382.7114257812" type="qcurve" smooth="yes"/>
			<point x="496.8818969727" y="1382.7114257812" type="line"/>
			<point x="470.8818969727" y="1362.7114257812" type="line"/>
			<point x="466.8818969727" y="765" type="line"/>
			<point x="469.8818969727" y="134.0002441406" type="line"/>
			<point x="681.6460571289" y="99.0002441406" type="line"/>
			<point x="681.6460571289" y="0" type="line"/>
		</contour>
		<contour>
			<point x="614" y="788" type="line"/>
			<point x="802" y="805" type="line"/>
			<point x="1067.9881591797" y="343" type="line" smooth="yes"/>
			<point x="1224" y="173"/>
			<point x="1330.8631591797" y="96.1721191406"/>
			<point x="1418.6936645508" y="99.0002441406" type="qcurve"/>
			<point x="1418.6936645508" y="0" type="line"/>
			<point x="1093.6116943359" y="0" type="line"/>
			<point x="1040.9140625" y="40" type="line"/>
		</contour>
	</outline>
	<anchor name="bottom" x="803" y="0"/>
	<anchor name="top" x="630" y="1500"/>
</glyph>
<glyph name="T" format="2">
	<unicode hex="0054"/>
	<advance width="1351"/>
	<outline>
		<contour>
			<point x="20" y="1042" type="line"/>
			<point x="20" y="1500" type="line"/>
			<point x="1329" y="1500" type="line"/>
			<point x="1329" y="1042" type="line"/>
			<point x="1219" y="1042" type="line"/>
			<point x="1184" y="1374" type="line"/>
			<point x="781" y="1374" type="line"/>
			<point x="762" y="1354" type="line"/>
			<point x="762" y="754" type="line"/>
			<point x="764" y="136" type="line"/>
			<point x="981" y="100" type="line"/>
			<point x="981" y="0" type="line"/>
			<point x="365" y="0" type="line"/>
			<point x="365" y="100" type="line"/>
			<point x="584" y="136" type="line"/>
			<point x="586" y="754" type="line"/>
			<point x="588" y="1354" type="line"/>
			<point x="579" y="1374" type="line"/>
			<point x="165" y="1374" type="line"/>
			<point x="130" y="1042" type="line"/>
		</contour>
	</outline>
	<anchor name="bottom" x="644" y="0"/>
	<anchor name="center" x="644" y="750"/>
	<anchor name="top" x="644" y="1500"/>
	<anchor name="cy_descender" x="951" y="100"/>
</glyph>
<glyph name="U" format="2">
	<unicode hex="0055"/>
	<advance width="1699"/>
	<outline>
		<contour>
			<point x="69.6737060547" y="1391.8397216797" type="line"/>
			<point x="69.6737060547" y="1500" type="line"/>
			<point x="634.850769043" y="1500" type="line"/>
			<point x="634.850769043" y="1391.8397216797" type="line"/>
			<point x="425.2017822266" y="1357.8397216797" type="line"/>
			<point x="418.2017822266" y="794" type="line"/>
			<point x="420.2017822266" y="518.5795898438" type="line" smooth="yes"/>
			<point x="421.0056152344" y="313.7182617188"/>
			<point x="647.4206542969" y="91.3016357422"/>
			<point x="875.7341308594" y="91.3016357422" type="qcurve" smooth="yes"/>
			<point x="1074.9953613281" y="91.3016357422"/>
			<point x="1324.2360229492" y="296.1376953125"/>
			<point x="1329.9522094727" y="502.9990234375" type="qcurve" smooth="yes"/>
			<point x="1332.9844360352" y="794" type="line"/>
			<point x="1331.8010253906" y="1357.8397216797" type="line"/>
			<point x="1087.3446044922" y="1391.8397216797" type="line"/>
			<point x="1087.3446044922" y="1500" type="line"/>
			<point x="1692.3425292969" y="1500" type="line"/>
			<point x="1692.3425292969" y="1391.8397216797" type="line"/>
			<point x="1449.3474121094" y="1357.8397216797" type="line"/>
			<point x="1447.3151855469" y="794" type="line"/>
			<point x="1447.0147094727" y="496" type="line" smooth="yes"/>
			<point x="1447.3305053711" y="248.9425048828"/>
			<point x="1236.4169921875" y="-14.1149902344"/>
			<point x="899.8372802734" y="-14.1149902344" type="qcurve" smooth="yes"/>
			<point x="563.2606811523" y="-14.1149902344"/>
			<point x="259.2075195312" y="247.7463378906"/>
			<point x="263.2075195312" y="514" type="qcurve" smooth="yes"/>
			<point x="266.5075073242" y="794" type="line"/>
			<point x="266.2075195312" y="1357.8397216797" type="line"/>
		</contour>
	</outline>
	<anchor name="bottom" x="832" y="0"/>
	<anchor name="ogonek" x="1042" y="0"/>
	<anchor name="top" x="832" y="1500"/>
	<anchor name="topright" x="1590" y="1500"/>
</glyph>
<glyph name="V" format="2">
	<unicode hex="0056"/>
	<advance width="1476"/>
	<outline>
		<contour>
			<point x="-27.8303833008" y="1393.8397216797" type="line"/>
			<point x="-27.8303833008" y="1500" type="line"/>
			<point x="509.149230957" y="1500" type="line"/>
			<point x="509.149230957" y="1393.8397216797" type="line"/>
			<point x="319.9993286133" y="1359.8397216797" type="line"/>
			<point x="548.2144775391" y="751.2264404297" type="line"/>
			<point x="709" y="366" type="line"/>
			<point x="746" y="252" type="line"/>
			<point x="756" y="252" type="line"/>
			<point x="793" y="366" type="line"/>
			<point x="967.749206543" y="810.6911010742" type="line"/>
			<point x="1148.0621337891" y="1358.8397216797" type="line"/>
			<point x="906.3357543945" y="1393.8397216797" type="line"/>
			<point x="906.3357543945" y="1500" type="line"/>
			<point x="1523.2503051758" y="1500" type="line"/>
			<point x="1523.2503051758" y="1393.8397216797" type="line"/>
			<point x="1282.6390991211" y="1361.8397216797" type="line"/>
			<point x="1077.9721679688" y="753.9826660156" type="line"/>
			<point x="821.7897338867" y="11.7700195312" type="line"/>
			<point x="640.8524169922" y="11.7700195312" type="line"/>
			<point x="355.0853271484" y="783.5122680664" type="line"/>
			<point x="137.319519043" y="1359.8397216797" type="line"/>
		</contour>
	</outline>
	<anchor name="bottom" x="723" y="0"/>
	<anchor name="top" x="733" y="1500"/>
</glyph>
<glyph name="W" format="2">
	<unicode hex="0057"/>
	<advance width="2001"/>
	<outline>
		<contour>
			<point x="562.9558105469" y="11.7700195312" type="line"/>
			<point x="336.9862060547" y="739.5801391602" type="line"/>
			<point x="146.319519043" y="1359.8397216797" type="line"/>
			<point x="-20.8303833008" y="1393.8397216797" type="line"/>
			<point x="-20.8303833008" y="1500" type="line"/>
			<point x="496.3369140625" y="1500" type="line"/>
			<point x="496.3369140625" y="1393.8397216797" type="line"/>
			<point x="303.2644042969" y="1359.8397216797" type="line"/>
			<point x="501.9473876953" y="762.1142578125" type="line"/>
			<point x="675" y="370" type="line"/>
			<point x="710" y="256" type="line"/>
			<point x="720" y="256" type="line"/>
			<point x="759" y="370" type="line"/>
			<point x="868" y="674" type="line"/>
			<point x="996" y="1038" type="line"/>
			<point x="826.8744506836" y="1364.3597412109" type="line"/>
			<point x="672.7245483398" y="1398.3597412109" type="line"/>
			<point x="672.7245483398" y="1500" type="line"/>
			<point x="1199.4716186523" y="1500" type="line"/>
			<point x="1199.4716186523" y="1398.3597412109" type="line"/>
			<point x="1015.3217163086" y="1364.3597412109" type="line"/>
			<point x="1156.3060913086" y="933.5014038086" type="line"/>
			<point x="1397" y="370" type="line"/>
			<point x="1430" y="256" type="line"/>
			<point x="1440" y="256" type="line"/>
			<point x="1476" y="370" type="line"/>
			<point x="1629" y="803" type="line"/>
			<point x="1712.610534668" y="1354.8397216797" type="line"/>
			<point x="1489.4228515625" y="1393.8397216797" type="line"/>
			<point x="1489.4228515625" y="1500" type="line"/>
			<point x="2085.4365844727" y="1500" type="line"/>
			<point x="2085.4365844727" y="1393.8397216797" type="line"/>
			<point x="1847.364074707" y="1358.8397216797" type="line"/>
			<point x="1747" y="760" type="line"/>
			<point x="1411.9146118164" y="11.7700195312" type="line"/>
			<point x="1220.6087036133" y="11.7700195312" type="line"/>
			<point x="1096" y="750" type="line"/>
			<point x="1060" y="866" type="line"/>
			<point x="1050" y="866" type="line"/>
			<point x="1014" y="750" type="line"/>
			<point x="733.1130371094" y="11.7700195312" type="line"/>
		</contour>
	</outline>
	<anchor name="bottom" x="1051" y="0"/>
	<anchor name="top" x="1051" y="1500"/>
</glyph>
<glyph name="X" format="2">
	<unicode hex="0058"/>
	<advance width="1364"/>
	<outline>
		<contour>
			<point x="-48.6388549805" y="0" type="line"/>
			<point x="-48.6388549805" y="99.0002441406" type="line"/>
			<point x="168.5110473633" y="130.0002441406" type="line"/>
			<point x="575" y="786" type="line"/>
			<point x="218.1194458008" y="1357.8397216797" type="line"/>
			<point x="47.430847168" y="1391.8397216797" type="line"/>
			<point x="47.430847168" y="1500" type="line"/>
			<point x="545.9936523438" y="1500" type="line"/>
			<point x="545.9936523438" y="1391.8397216797" type="line"/>
			<point x="392.1130981445" y="1358.8397216797" type="line"/>
			<point x="601" y="1043" type="line"/>
			<point x="673" y="929" type="line"/>
			<point x="683" y="929" type="line"/>
			<point x="751" y="1043" type="line"/>
			<point x="984.3082885742" y="1355.8397216797" type="line"/>
			<point x="787.0432128906" y="1391.8397216797" type="line"/>
			<point x="787.0432128906" y="1500" type="line"/>
			<point x="1357.3850314233" y="1500" type="line"/>
			<point x="1357.3850314233" y="1391.8397216797" type="line"/>
			<point x="1137.7738253686" y="1359.8397216797" type="line"/>
			<point x="753" y="818" type="line"/>
			<point x="1228.3905029297" y="133.0002441406" type="line"/>
			<point x="1392.5404052734" y="99.0002441406" type="line"/>
			<point x="1392.5404052734" y="0" type="line"/>
			<point x="880.3163452148" y="0" type="line"/>
			<point x="880.3163452148" y="99.0002441406" type="line"/>
			<point x="1047.1968994141" y="133.0002441406" type="line"/>
			<point x="727" y="562" type="line"/>
			<point x="655" y="676" type="line"/>
			<point x="645" y="676" type="line"/>
			<point x="577" y="562" type="line"/>
			<point x="322.7669067383" y="133.0002441406" type="line"/>
			<point x="538.0319824219" y="99.0002441406" type="line"/>
			<point x="538.0319824219" y="0" type="line"/>
		</contour>
	</outline>
	<anchor name="bottom" x="661" y="0"/>
	<anchor name="top" x="673" y="1500"/>
	<anchor name="cy_descender" x="1386" y="100"/>
	<anchor name="center" x="663" y="811"/>
</glyph>
<glyph name="Y" format="2">
	<unicode hex="0059"/>
	<advance width="1265"/>
	<outline>
		<contour>
			<point x="302.7046508789" y="0" type="line"/>
			<point x="302.7046508789" y="101.0002441406" type="line"/>
			<point x="518.8533325195" y="133.0002441406" type="line"/>
			<point x="520.8533325195" y="684.100769043" type="line"/>
			<point x="370.0024414062" y="919.4789428711" type="line"/>
			<point x="97.3406982422" y="1357.8397216797" type="line"/>
			<point x="-54.0401611328" y="1391.8397216797" type="line"/>
			<point x="-54.0401611328" y="1500" type="line"/>
			<point x="449.5124511719" y="1500" type="line"/>
			<point x="449.5124511719" y="1391.8397216797" type="line"/>
			<point x="292.1699829102" y="1357.8397216797" type="line"/>
			<point x="527.8800048828" y="939.7621459961" type="line"/>
			<point x="659" y="783" type="line"/>
			<point x="669" y="783" type="line"/>
			<point x="801.7340698242" y="1063.6585693359" type="line"/>
			<point x="963.5758056641" y="1358.8397216797" type="line"/>
			<point x="731.8494262695" y="1391.8397216797" type="line"/>
			<point x="731.8494262695" y="1500" type="line"/>
			<point x="1326.5476074219" y="1500" type="line"/>
			<point x="1326.5476074219" y="1391.8397216797" type="line"/>
			<point x="1117.3977050781" y="1357.8397216797" type="line"/>
			<point x="900.0004272461" y="986.8405761719" type="line"/>
			<point x="695.7639770508" y="649.5493164062" type="line"/>
			<point x="697.2478637695" y="133.0002441406" type="line"/>
			<point x="910.704284668" y="101.0002441406" type="line"/>
			<point x="910.704284668" y="0" type="line"/>
		</contour>
	</outline>
	<anchor name="bottom" x="636" y="0"/>
	<anchor name="top" x="640" y="1500"/>
	<anchor name="tonos" x="-100" y="1500"/>
	<anchor name="center" x="636" y="582"/>
</glyph>
<glyph name="Z" format="2">
	<unicode hex="005A"/>
	<advance width="1127"/>
	<outline>
		<contour>
			<point x="64.0480957031" y="0" type="line"/>
			<point x="31.1774902344" y="100.1279296875" type="line"/>
			<point x="808.4609375" y="1365.7114257812" type="line"/>
			<point x="803.4609375" y="1378.7114257812" type="line"/>
			<point x="295.9924316406" y="1378.7114257812" type="line"/>
			<point x="201.7678222656" y="1063.23828125" type="line"/>
			<point x="96.1712646484" y="1063.23828125" type="line"/>
			<point x="96.1712646484" y="1500" type="line"/>
			<point x="1010.5240478516" y="1500" type="line"/>
			<point x="1010.5240478516" y="1390.2592773438" type="line"/>
			<point x="242.5416259766" y="143.1274414062" type="line"/>
			<point x="248.5416259766" y="116.1274414062" type="line"/>
			<point x="892.2516479492" y="116.1274414062" type="line"/>
			<point x="994.944519043" y="435.634765625" type="line"/>
			<point x="1103.256652832" y="435.634765625" type="line"/>
			<point x="1074.2810668945" y="0" type="line"/>
		</contour>
	</outline>
	<anchor name="bottom" x="583" y="0"/>
	<anchor name="top" x="583" y="1500"/>
	<anchor name="_liga" x="0" y="0"/>
</glyph>
<glyph name="a" format="2">
	<unicode hex="0061"/>
	<advance width="1012"/>
	<outline>
		<contour>
			<point x="32.326171875" y="257.8894042969" type="qcurve" smooth="yes"/>
			<point x="32.326171875" y="405.3341064453"/>
			<point x="416" y="583"/>
			<point x="780" y="630" type="qcurve"/>
			<point x="673.6198120117" y="555.1427612305" type="line"/>
			<point x="458.5415039062" y="521.8743896484"/>
			<point x="208.2694091797" y="386.600769043"/>
			<point x="210.2694091797" y="292.600402832" type="qcurve" smooth="yes"/>
			<point x="211.2694091797" y="196.0449829102"/>
			<point x="292.1844482422" y="103.3629760742"/>
			<point x="369.7312011719" y="103.3629760742" type="qcurve" smooth="yes"/>
			<point x="443.989440918" y="103.3629760742"/>
			<point x="618.9934082031" y="197.9633789062"/>
			<point x="627.6343994141" y="235.9190063477" type="qcurve"/>
			<point x="630.6343994141" y="562.2393188477" type="line" smooth="yes"/>
			<point x="632.6343994141" y="792.1022949219"/>
			<point x="541.4428710938" y="903.3110351562"/>
			<point x="428.8342895508" y="903.3110351562" type="qcurve" smooth="yes"/>
			<point x="349.901184082" y="903.3110351562"/>
			<point x="240.7484130859" y="879.1828613281"/>
			<point x="256.6126708984" y="889.7751464844" type="qcurve"/>
			<point x="270.2122802734" y="868.0793457031"/>
			<point x="317.6915893555" y="812.5403442383"/>
			<point x="322.8063964844" y="769.1367797852" type="qcurve" smooth="yes"/>
			<point x="332.0249023438" y="723.0460205078"/>
			<point x="260.3966674805" y="666.3734130859"/>
			<point x="215.4696044922" y="661.3734130859" type="qcurve" smooth="yes"/>
			<point x="176.2880859375" y="656.3734130859"/>
			<point x="104.2764282227" y="726.1951293945"/>
			<point x="104.2764282227" y="789.8677368164" type="qcurve" smooth="yes"/>
			<point x="104.2764282227" y="893.3075561523"/>
			<point x="281.3397827148" y="1020.7169189453"/>
			<point x="444.7166137695" y="1020.7169189453" type="qcurve" smooth="yes"/>
			<point x="603.391784668" y="1020.7169189453"/>
			<point x="790.3118286133" y="848.8440551758"/>
			<point x="793.3118286133" y="643.6653442383" type="qcurve" smooth="yes"/>
			<point x="802.3118286133" y="116" type="line"/>
			<point x="946.1876831055" y="81" type="line"/>
			<point x="946.1876831055" y="0" type="line"/>
			<point x="663.6198120117" y="0" type="line"/>
			<point x="637.6198120117" y="28" type="line"/>
			<point x="635.3312988281" y="95.0003051758" type="line"/>
			<point x="608.4942626953" y="49.58203125"/>
			<point x="372.678527832" y="-10.1149902344"/>
			<point x="234.573059082" y="-11.1149902344" type="qcurve" smooth="yes"/>
			<point x="176.4036254883" y="-12.1149902344"/>
			<point x="32.326171875" y="118.6718139648"/>
		</contour>
	</outline>
	<anchor name="bottom" x="548" y="0"/>
	<anchor name="ogonek" x="878" y="0"/>
	<anchor name="top" x="514" y="1000"/>
</glyph>
<glyph name="b" format="2">
	<unicode hex="0062"/>
	<advance width="1168"/>
	<outline>
		<contour>
			<point x="182.2463378906" y="-2" type="line"/>
			<point x="190.2463378906" y="477" type="line"/>
			<point x="183.2317504883" y="1394.5012207031" type="line"/>
			<point x="36.8966674805" y="1434.5012207031" type="line"/>
			<point x="36.8966674805" y="1522.0012207031" type="line"/>
			<point x="289.8038330078" y="1532.0778808594" type="line"/>
			<point x="316.8038330078" y="1530.0778808594" type="line"/>
			<point x="365.8038330078" y="1485.0778808594" type="line"/>
			<point x="367.8038330078" y="877.8016357422" type="line"/>
			<point x="374.1713867188" y="931.8439331055"/>
			<point x="555.8032226562" y="1017.7169189453"/>
			<point x="682.6174316406" y="1017.7169189453" type="qcurve" smooth="yes"/>
			<point x="861.4249267578" y="1017.7169189453"/>
			<point x="1098.1831054688" y="770.2627563477"/>
			<point x="1098.1831054688" y="533.6201782227" type="qcurve" smooth="yes"/>
			<point x="1098.1831054688" y="270.5737304688"/>
			<point x="876.6746826172" y="-9.4881591797"/>
			<point x="647.785949707" y="-9.4881591797" type="qcurve" smooth="yes"/>
			<point x="523.7929077148" y="-9.4881591797"/>
			<point x="359.0612792969" y="58.2432250977"/>
			<point x="330.6810913086" y="98.1482543945" type="qcurve"/>
			<point x="233.7182006836" y="-2" type="line"/>
		</contour>
		<contour>
			<point x="371.8038330078" y="393.0161743164" type="line"/>
			<point x="364.8038330078" y="223.0840454102" type="line"/>
			<point x="381.4164428711" y="180.3272094727"/>
			<point x="568.3489379883" y="105.6116333008"/>
			<point x="649.1990356445" y="105.6116333008" type="qcurve" smooth="yes"/>
			<point x="792.4368286133" y="105.6116333008"/>
			<point x="944.7568969727" y="338.1128540039"/>
			<point x="944.7568969727" y="481.8201293945" type="qcurve" smooth="yes"/>
			<point x="944.7568969727" y="634.4094848633"/>
			<point x="814.2799682617" y="854.1258544922"/>
			<point x="662.2186889648" y="854.1258544922" type="qcurve" smooth="yes"/>
			<point x="557.6079711914" y="854.1258544922"/>
			<point x="406.6538696289" y="798.2843017578"/>
			<point x="365.8038330078" y="750.5873413086" type="qcurve"/>
		</contour>
	</outline>
	<anchor name="bottom" x="571" y="0"/>
	<anchor name="top" x="571" y="1533"/>
</glyph>
<glyph name="c" format="2">
	<unicode hex="0063"/>
	<advance width="1007"/>
	<outline>
		<contour>
			<point x="63.9986572266" y="479.694519043" type="qcurve" smooth="yes"/>
			<point x="63.9986572266" y="749.493347168"/>
			<point x="360.0182495117" y="1023.4708251953"/>
			<point x="564.8918457031" y="1023.4708251953" type="qcurve" smooth="yes"/>
			<point x="687.4844970703" y="1023.4708251953"/>
			<point x="761.2673339844" y="977.1845703125"/>
			<point x="803.4934082031" y="942.9283447266" type="qcurve"/>
			<point x="842.6341552734" y="1006.2960205078" type="line"/>
			<point x="928.0177612305" y="1006.2960205078" type="line"/>
			<point x="928.0177612305" y="680.4134521484" type="line"/>
			<point x="821.2741699219" y="680.4134521484" type="line"/>
			<point x="786.7260742188" y="773.0018310547" type="line" smooth="yes"/>
			<point x="761.9957885742" y="831.4091796875"/>
			<point x="633.8880615234" y="895.5817260742"/>
			<point x="541.3959350586" y="895.5817260742" type="qcurve" smooth="yes"/>
			<point x="367.7463989258" y="895.5817260742"/>
			<point x="247.5123901367" y="679.5509643555"/>
			<point x="247.5123901367" y="508.1970825195" type="qcurve" smooth="yes"/>
			<point x="247.5123901367" y="309.9611206055"/>
			<point x="369.321472168" y="138.8864746094"/>
			<point x="547.8535766602" y="138.8864746094" type="qcurve" smooth="yes"/>
			<point x="679.2503051758" y="138.8864746094"/>
			<point x="855.5189819336" y="201.9260253906"/>
			<point x="925.2728881836" y="262" type="qcurve"/>
			<point x="1000.2366943359" y="175.2221069336" type="line"/>
			<point x="913.8501586914" y="89.7777099609"/>
			<point x="711.9243164062" y="-21.0766601562"/>
			<point x="547.7670288086" y="-21.0766601562" type="qcurve" smooth="yes"/>
			<point x="345.0931396484" y="-21.0766601562"/>
			<point x="63.9986572266" y="255.600769043"/>
		</contour>
	</outline>
	<anchor name="bottom" x="563" y="0"/>
	<anchor name="top" x="534" y="1000"/>
</glyph>
<glyph name="k" format="2">
	<unicode hex="006B"/>
	<advance width="1016"/>
	<outline>
		<contour>
			<point x="73.3615722656" y="0" type="line"/>
			<point x="73.3615722656" y="81" type="line"/>
			<point x="228.3051757812" y="116" type="line"/>
			<point x="230.3051757812" y="482" type="line"/>
			<point x="228.3051757812" y="1394.5012207031" type="line"/>
			<point x="75.1457519531" y="1434.5012207031" type="line"/>
			<point x="75.1457519531" y="1518.4880371094" type="line"/>
			<point x="321.9971923828" y="1530.0778808594" type="line"/>
			<point x="346.9971923828" y="1529.0778808594" type="line"/>
			<point x="394.9971923828" y="1483.0778808594" type="line"/>
			<point x="397.9971923828" y="516" type="line"/>
			<point x="394.9971923828" y="116" type="line"/>
			<point x="521.2381591797" y="81" type="line"/>
			<point x="521.2381591797" y="0" type="line"/>
		</contour>
		<contour>
			<point x="303" y="376" type="line"/>
			<point x="303" y="490" type="line"/>
			<point x="689.4108886719" y="874.1018066406" type="line"/>
			<point x="593.4108886719" y="904.1018066406" type="line"/>
			<point x="593.4108886719" y="999.6018066406" type="line"/>
			<point x="965.4591064453" y="999.6018066406" type="line"/>
			<point x="965.4591064453" y="904.1018066406" type="line"/>
			<point x="825.4591064453" y="874.1018066406" type="line"/>
		</contour>
		<contour>
			<point x="494.0840454102" y="580.8818359375" type="line"/>
			<point x="589.1915283203" y="739.8317871094" type="line"/>
			<point x="959.0050048828" y="118" type="line"/>
			<point x="1054.9498291016" y="81" type="line"/>
			<point x="1054.9498291016" y="0" type="line"/>
			<point x="767.5617675781" y="0" type="line"/>
			<point x="760.5617675781" y="65.75" type="line"/>
			<point x="772.5617675781" y="108.75" type="line"/>
		</contour>
	</outline>
	<anchor name="bottom" x="608" y="0"/>
	<anchor name="top" x="578" y="1534"/>
</glyph>
<glyph name="l" format="2">
	<unicode hex="006C"/>
	<advance width="623"/>
	<outline>
		<contour>
			<point x="98.1748046875" y="0" type="line"/>
			<point x="98.1748046875" y="81" type="line"/>
			<point x="239.6315917969" y="116" type="line"/>
			<point x="241.6315917969" y="527" type="line"/>
			<point x="239.6315917969" y="1392.5012207031" type="line"/>
			<point x="82.958984375" y="1432.5012207031" type="line"/>
			<point x="82.958984375" y="1522.0012207031" type="line"/>
			<point x="335.6218261719" y="1530.0778808594" type="line"/>
			<point x="365.6218261719" y="1529.0778808594" type="line"/>
			<point x="415.6218261719" y="1483.0778808594" type="line"/>
			<point x="413.6218261719" y="527" type="line"/>
			<point x="415.6218261719" y="116" type="line"/>
			<point x="557.3759765625" y="81" type="line"/>
			<point x="557.3759765625" y="0" type="line"/>
		</contour>
	</outline>
	<anchor name="bottom" x="316" y="0"/>
	<anchor name="center" x="316" y="750"/>
	<anchor name="top" x="316" y="1534"/>
	<anchor name="topright" x="367" y="1000"/>
	<anchor name="centerright" x="746" y="680"/>
	<anchor name="yu_dash" x="321" y="500"/>
	<anchor name="liga" x="632" y="0"/>
</glyph>
<glyph name="m" format="2">
	<unicode hex="006D"/>
	<advance width="1850"/>
	<outline>
		<contour>
			<point x="75.4504394531" y="0" type="line"/>
			<point x="75.4504394531" y="81" type="line"/>
			<point x="224.4479980469" y="116" type="line"/>
			<point x="228.4479980469" y="588.801940918" type="line"/>
			<point x="224.4479980469" y="851.1018066406" type="line"/>
			<point x="75.4504394531" y="886.1018066406" type="line"/>
			<point x="75.4504394531" y="972.6018066406" type="line"/>
			<point x="352.6848144531" y="1010.6784667969" type="line"/>
			<point x="373.314453125" y="999.6784667969" type="line"/>
			<point x="378.721862793" y="857.6018066406" type="line"/>
			<point x="425.7592163086" y="932.6018066406"/>
			<point x="605.5143432617" y="1017.3052978516"/>
			<point x="734.1345825195" y="1017.3052978516" type="qcurve" smooth="yes"/>
			<point x="879.0723876953" y="1017.3052978516"/>
			<point x="989.5565185547" y="926.3052978516"/>
			<point x="1001.7118530273" y="870.3636474609" type="qcurve"/>
			<point x="1042.0059204102" y="929.3052978516"/>
			<point x="1237.1772460938" y="1017.3052978516"/>
			<point x="1346.724609375" y="1017.3052978516" type="qcurve" smooth="yes"/>
			<point x="1495.7532348633" y="1017.3052978516"/>
			<point x="1625.4609985352" y="874.3052978516"/>
			<point x="1625.4609985352" y="766.3052978516" type="qcurve" smooth="yes"/>
			<point x="1624.4609985352" y="703.9053344727"/>
			<point x="1627.3773803711" y="504.6019287109"/>
			<point x="1627.1773681641" y="532.801940918" type="qcurve" smooth="yes"/>
			<point x="1633.1773681641" y="115" type="line"/>
			<point x="1786.1749267578" y="81" type="line"/>
			<point x="1786.1749267578" y="0" type="line"/>
			<point x="1366.7312011719" y="0" type="line"/>
			<point x="1366.7312011719" y="81" type="line"/>
			<point x="1459.4853515625" y="116" type="line"/>
			<point x="1463.3001708984" y="490.801940918" type="line"/>
			<point x="1465.588684082" y="708.1798095703" type="line" smooth="yes"/>
			<point x="1466.5040893555" y="800.1798095703"/>
			<point x="1370.3716430664" y="875.1798095703"/>
			<point x="1283.6840820312" y="875.1798095703" type="qcurve" smooth="yes"/>
			<point x="1219.0103759766" y="875.1798095703"/>
			<point x="1042.7411499023" y="809.1171875"/>
			<point x="1005.8061523438" y="756.3362426758" type="qcurve"/>
			<point x="1008.9753417969" y="750.1250610352"/>
			<point x="1006.8265991211" y="478.6019287109"/>
			<point x="1006.1102294922" y="495.801940918" type="qcurve" smooth="yes"/>
			<point x="1009.5176391602" y="116" type="line"/>
			<point x="1114.5151977539" y="81" type="line"/>
			<point x="1114.5151977539" y="0" type="line"/>
			<point x="737.6387329102" y="0" type="line"/>
			<point x="737.6387329102" y="81" type="line"/>
			<point x="840.3928833008" y="116" type="line"/>
			<point x="842.3928833008" y="556.801940918" type="line"/>
			<point x="842.3928833008" y="741.1798095703" type="line" smooth="yes"/>
			<point x="842.3928833008" y="816.1798095703"/>
			<point x="759.395324707" y="874.1798095703"/>
			<point x="670.8613891602" y="875.1798095703" type="qcurve" smooth="yes"/>
			<point x="602.6845703125" y="876.1798095703"/>
			<point x="432.8658447266" y="805.5401611328"/>
			<point x="394.721862793" y="756.0130004883" type="qcurve"/>
			<point x="392.721862793" y="588.801940918" type="line"/>
			<point x="394.721862793" y="116" type="line"/>
			<point x="502.9628295898" y="81" type="line"/>
			<point x="502.9628295898" y="0" type="line"/>
		</contour>
	</outline>
	<anchor name="bottom" x="958" y="0"/>
	<anchor name="top" x="958" y="1000"/>
</glyph>
<glyph name="n" format="2">
	<unicode hex="006E"/>
	<advance width="1274"/>
	<outline>
		<contour>
			<point x="75.4504394531" y="0" type="line"/>
			<point x="75.4504394531" y="81" type="line"/>
			<point x="223.4479980469" y="116" type="line"/>
			<point x="226.4479980469" y="535.801940918" type="line"/>
			<point x="221.4479980469" y="851.1018066406" type="line"/>
			<point x="75.4504394531" y="886.1018066406" type="line"/>
			<point x="75.4504394531" y="969.2642822266" type="line"/>
			<point x="360.1691894531" y="1010.6784667969" type="line"/>
			<point x="379.1691894531" y="999.6784667969" type="line"/>
			<point x="383.6019287109" y="838.2836303711" type="line"/>
			<point x="433.1483016476" y="912.7111206055"/>
			<point x="627.0974239226" y="1017.5053100586"/>
			<point x="768.5964473601" y="1017.5053100586" type="qcurve" smooth="yes"/>
			<point x="917.2995881112" y="1017.5053100586"/>
			<point x="1055.1365789598" y="860.8327026367"/>
			<point x="1055.1365789598" y="731.6690063477" type="qcurve" smooth="yes"/>
			<point x="1055.1365789598" y="660.2690429688"/>
			<point x="1055.4188370243" y="579.3054199219"/>
			<point x="1056.4188370243" y="551.5054321289" type="qcurve" smooth="yes"/>
			<point x="1062.4188370243" y="115" type="line"/>
			<point x="1210.416395618" y="81" type="line"/>
			<point x="1210.416395618" y="0" type="line"/>
			<point x="775.6744522587" y="0" type="line"/>
			<point x="775.6744522587" y="81" type="line"/>
			<point x="880.4286026493" y="116" type="line"/>
			<point x="884.4286026493" y="476.5054321289" type="line"/>
			<point x="884.7108607138" y="709.4803368353" type="line" smooth="yes"/>
			<point x="884.9931187784" y="798.7410691784"/>
			<point x="777.3021870274" y="865.1331787109"/>
			<point x="679.9040487966" y="865.1331787109" type="qcurve" smooth="yes"/>
			<point x="572.2795922064" y="865.1331787109"/>
			<point x="416.2036310011" y="778.4313964844"/>
			<point x="392.4382324219" y="732.5875854492" type="qcurve"/>
			<point x="390.4382324219" y="483.801940918" type="line"/>
			<point x="394.4382324219" y="116" type="line"/>
			<point x="526.6791992188" y="81" type="line"/>
			<point x="526.6791992188" y="0" type="line"/>
		</contour>
	</outline>
	<anchor name="bottom" x="632" y="0"/>
	<anchor name="top" x="632" y="1000"/>
	<anchor name="liga" x="1264" y="0"/>
</glyph>
<glyph name="p" format="2">
	<unicode hex="0070"/>
	<advance width="1191"/>
	<outline>
		<contour>
			<point x="54.2471923828" y="-479.9951171875" type="line"/>
			<point x="54.2471923828" y="-399.9951171875" type="line"/>
			<point x="194.3664550781" y="-364.9951171875" type="line"/>
			<point x="196.3664550781" y="403.8009033203" type="line"/>
			<point x="194.3664550781" y="851.1018066406" type="line"/>
			<point x="48.3688964844" y="886.1018066406" type="line"/>
			<point x="48.3688964844" y="969.2642822266" type="line"/>
			<point x="333.9385375977" y="1002.6784667969" type="line"/>
			<point x="349.9385375977" y="991.6784667969" type="line"/>
			<point x="367.9385375977" y="879.6018066406" type="line"/>
			<point x="354.1256103516" y="926.757019043"/>
			<point x="543.4977416992" y="1020.3054199219"/>
			<point x="716.2496948242" y="1020.3054199219" type="qcurve" smooth="yes"/>
			<point x="880.5120239258" y="1020.3054199219"/>
			<point x="1124.1180419922" y="773.7106933594"/>
			<point x="1124.1180419922" y="527.8200683594" type="qcurve" smooth="yes"/>
			<point x="1124.1180419922" y="281.7221069336"/>
			<point x="856.2943725586" y="3.9233398438"/>
			<point x="641.5872192383" y="3.9233398438" type="qcurve" smooth="yes"/>
			<point x="499.0726928711" y="3.9233398438"/>
			<point x="357.3604125977" y="57.7755126953"/>
			<point x="370.9385375977" y="78" type="qcurve"/>
			<point x="372.9385375977" y="-364.9951171875" type="line"/>
			<point x="552.6387329102" y="-399.9951171875" type="line"/>
			<point x="552.6387329102" y="-479.9951171875" type="line"/>
		</contour>
		<contour>
			<point x="370.9385375977" y="239.6656494141" type="line"/>
			<point x="394.2554321289" y="176.1209716797"/>
			<point x="546.721496582" y="91.4462280273"/>
			<point x="630.4552612305" y="91.4462280273" type="qcurve" smooth="yes"/>
			<point x="775.6930541992" y="91.4462280273"/>
			<point x="954.9317016602" y="349.446472168"/>
			<point x="954.9317016602" y="500.8200683594" type="qcurve" smooth="yes"/>
			<point x="954.9317016602" y="665.2365112305"/>
			<point x="804.3867797852" y="903.2052612305"/>
			<point x="647.3255004883" y="903.2052612305" type="qcurve" smooth="yes"/>
			<point x="549.0436401367" y="903.2052612305"/>
			<point x="411.6337890625" y="808.9486694336"/>
			<point x="368.9385375977" y="751.7145996094" type="qcurve"/>
			<point x="367.9385375977" y="426.8009033203" type="line"/>
		</contour>
	</outline>
	<anchor name="bottom" x="599" y="0"/>
	<anchor name="top" x="599" y="1000"/>
</glyph>
<glyph name="s" format="2">
	<unicode hex="0073"/>
	<advance width="838"/>
	<outline>
		<contour>
			<point x="27.6590346334" y="4.7058105469" type="line"/>
			<point x="27.6590346334" y="288.5883789062" type="line"/>
			<point x="128.3658827779" y="288.5883789062" type="line"/>
			<point x="170.1807021138" y="205" type="line" smooth="yes"/>
			<point x="213.7818941447" y="116.7778320312"/>
			<point x="347.9407686564" y="74.1169433594"/>
			<point x="438.291415629" y="74.1169433594" type="qcurve" smooth="yes"/>
			<point x="540.3996919962" y="74.1169433594"/>
			<point x="643.8896822306" y="154.6833496094"/>
			<point x="643.3348726603" y="240.9954833984" type="qcurve" smooth="yes"/>
			<point x="642.78006309" y="329.9212036133"/>
			<point x="491.7427706095" y="420.376159668"/>
			<point x="348.0806612345" y="474.8828125" type="qcurve" smooth="yes"/>
			<point x="181.4570040079" y="543.426574707"/>
			<point x="65.7917208048" y="648.303527832"/>
			<point x="66.8927382467" y="760.0998535156" type="qcurve" smooth="yes"/>
			<point x="68.0109590861" y="872.6580810547"/>
			<point x="210.6424288126" y="1022.8746337891"/>
			<point x="360.0928682658" y="1022.8746337891" type="qcurve" smooth="yes"/>
			<point x="444.6718477579" y="1022.8746337891"/>
			<point x="522.1991304728" y="986.0345458984"/>
			<point x="554.1409639689" y="962.0345458984" type="qcurve"/>
			<point x="610.9557833048" y="1018.8959960938" type="line"/>
			<point x="697.1066011759" y="1018.8959960938" type="line"/>
			<point x="697.1066011759" y="719.0134277344" type="line"/>
			<point x="593.9924043986" y="719.0134277344" type="line"/>
			<point x="573.9650606486" y="735.3181762695" type="line" smooth="yes"/>
			<point x="511.3036226603" y="848.3795166016"/>
			<point x="426.2165254923" y="925.7262573242"/>
			<point x="368.4099459025" y="925.7262573242" type="qcurve" smooth="yes"/>
			<point x="287.6207613322" y="925.7262573242"/>
			<point x="197.9030489298" y="853.3558349609"/>
			<point x="197.9030489298" y="809.6657714844" type="qcurve" smooth="yes"/>
			<point x="197.9030489298" y="752.3585205078"/>
			<point x="304.8552016256" y="670.2688598633"/>
			<point x="467.0542372701" y="606.3081054688" type="qcurve" smooth="yes"/>
			<point x="599.5867079732" y="552.901550293"/>
			<point x="775.5219454142" y="411.2296142578"/>
			<point x="775.5219454142" y="282.8621826172" type="qcurve" smooth="yes"/>
			<point x="775.5219454142" y="143.4315185547"/>
			<point x="605.2148165079" y="-23.2536621094"/>
			<point x="480.2696871134" y="-23.2536621094" type="qcurve" smooth="yes"/>
			<point x="347.6849703165" y="-23.2536621094"/>
			<point x="192.883212504" y="31.8508911133"/>
			<point x="163.2543105123" y="45.5672607422" type="qcurve"/>
			<point x="108.8098525045" y="4.7058105469" type="line"/>
		</contour>
	</outline>
	<anchor name="bottom" x="468" y="0"/>
	<anchor name="top" x="416" y="1000"/>
</glyph>
<glyph name="u" format="2">
	<unicode hex="0075"/>
	<advance width="1195"/>
	<outline>
		<contour>
			<point x="55.5322265625" y="884.1016845703" type="line"/>
			<point x="55.5322265625" y="970.6016845703" type="line"/>
			<point x="258.3709106445" y="1002.6016845703" type="line"/>
			<point x="336.3709106445" y="1002.6016845703" type="line"/>
			<point x="373.3709106445" y="953.6016845703" type="line"/>
			<point x="372.3709106445" y="488.1192626953" type="line"/>
			<point x="372.3709106445" y="306.3950805664" type="line" smooth="yes"/>
			<point x="372.3709106445" y="189.4746704102"/>
			<point x="482.7972412109" y="129.8278198242"/>
			<point x="550.9806518555" y="129.8278198242" type="qcurve" smooth="yes"/>
			<point x="617.2736206055" y="128.8278198242"/>
			<point x="755.8206176758" y="186.0569458008"/>
			<point x="796.6211547852" y="229.4684448242" type="qcurve"/>
			<point x="798.6211547852" y="483.9997558594" type="line"/>
			<point x="796.6211547852" y="854.1016845703" type="line"/>
			<point x="655.3801879883" y="884.1016845703" type="line"/>
			<point x="655.3801879883" y="970.6016845703" type="line"/>
			<point x="856.1786499023" y="1002.6016845703" type="line"/>
			<point x="934.1786499023" y="1002.6016845703" type="line"/>
			<point x="972.1786499023" y="953.6016845703" type="line"/>
			<point x="970.1786499023" y="483.9997558594" type="line"/>
			<point x="972.1786499023" y="145" type="line"/>
			<point x="1119.1762084961" y="115" type="line"/>
			<point x="1119.1762084961" y="23" type="line"/>
			<point x="878.6211547852" y="-11" type="line"/>
			<point x="821.6211547852" y="36" type="line"/>
			<point x="793.7556762695" y="129" type="line"/>
			<point x="745.6196289062" y="60.7846679688"/>
			<point x="575.9524536133" y="-7.8804931641"/>
			<point x="473.6354980469" y="-7.8804931641" type="qcurve" smooth="yes"/>
			<point x="336.0355224609" y="-7.8804931641"/>
			<point x="203.5297851562" y="145.2444458008"/>
			<point x="203.5297851562" y="277.1195068359" type="qcurve" smooth="yes"/>
			<point x="203.5297851562" y="353.7194213867"/>
			<point x="200.3297729492" y="535.5192871094"/>
			<point x="200.5297851562" y="516.1192626953" type="qcurve" smooth="yes"/>
			<point x="197.5297851562" y="854.1016845703" type="line"/>
		</contour>
	</outline>
	<anchor name="bottom" x="622" y="0"/>
	<anchor name="ogonek" x="1030" y="20"/>
	<anchor name="top" x="622" y="1000"/>
	<anchor name="topright" x="1005" y="1000"/>
	<anchor name="cy_descender" x="1178" y="80"/>
</glyph>
<glyph name="v" format="2">
	<unicode hex="0076"/>
	<advance width="1063"/>
	<outline>
		<contour>
			<point x="-23.1143798828" y="904.1018066406" type="line"/>
			<point x="-23.1143798828" y="999.6018066406" type="line"/>
			<point x="417.9932861328" y="999.6018066406" type="line"/>
			<point x="417.9932861328" y="904.1018066406" type="line"/>
			<point x="295.900390625" y="868.1018066406" type="line"/>
			<point x="441.2412109375" y="481.8287353516" type="line"/>
			<point x="486" y="301" type="line"/>
			<point x="523" y="187" type="line"/>
			<point x="533" y="187" type="line"/>
			<point x="570" y="301" type="line"/>
			<point x="662.6067504883" y="573.934387207" type="line"/>
			<point x="771.1945800781" y="868.1018066406" type="line"/>
			<point x="608.3990478516" y="904.1018066406" type="line"/>
			<point x="608.3990478516" y="999.6018066406" type="line"/>
			<point x="1090.4663085938" y="999.6018066406" type="line"/>
			<point x="1090.4663085938" y="904.1018066406" type="line"/>
			<point x="911.9819335938" y="872.1018066406" type="line"/>
			<point x="776.5732421875" y="548.3423461914" type="line"/>
			<point x="592.9727172852" y="3.9233398438" type="line"/>
			<point x="430.5026855469" y="3.9233398438" type="line"/>
			<point x="266.891418457" y="458.8814086914" type="line"/>
			<point x="107.1002197266" y="869.1018066406" type="line"/>
		</contour>
	</outline>
	<anchor name="bottom" x="513" y="0"/>
	<anchor name="top" x="513" y="1000"/>
</glyph>
<glyph name="w" format="2">
	<unicode hex="0077"/>
	<advance width="1529"/>
	<outline>
		<contour>
			<point x="377.7326049805" y="3.9233398438" type="line"/>
			<point x="215.0360717773" y="520.026184082" type="line"/>
			<point x="87.9520263672" y="869.1018066406" type="line"/>
			<point x="-31.2625732422" y="904.1018066406" type="line"/>
			<point x="-31.2625732422" y="999.6018066406" type="line"/>
			<point x="356.6237792969" y="999.6018066406" type="line"/>
			<point x="356.6237792969" y="904.1018066406" type="line"/>
			<point x="256.5308837891" y="869.1018066406" type="line"/>
			<point x="387.7554321289" y="463.7510375977" type="line"/>
			<point x="483" y="294" type="line"/>
			<point x="521" y="180" type="line"/>
			<point x="531" y="180" type="line"/>
			<point x="568" y="294" type="line"/>
			<point x="574.0114135742" y="359.2308959961" type="line"/>
			<point x="725" y="747" type="line"/>
			<point x="614.4041137695" y="869.1018066406" type="line"/>
			<point x="506.946105957" y="904.1018066406" type="line"/>
			<point x="506.946105957" y="999.6018066406" type="line"/>
			<point x="885.6127929688" y="999.6018066406" type="line"/>
			<point x="885.6127929688" y="904.1018066406" type="line"/>
			<point x="792.5198974609" y="869.1018066406" type="line"/>
			<point x="935.8262329102" y="408.7302856445" type="line"/>
			<point x="1045" y="294" type="line"/>
			<point x="1082" y="180" type="line"/>
			<point x="1092" y="180" type="line"/>
			<point x="1128" y="294" type="line"/>
			<point x="1125.8509521484" y="453.5397338867" type="line"/>
			<point x="1242.103515625" y="866.1018066406" type="line"/>
			<point x="1097.3079833984" y="904.1018066406" type="line"/>
			<point x="1097.3079833984" y="999.6018066406" type="line"/>
			<point x="1523.3148193359" y="999.6018066406" type="line"/>
			<point x="1523.3148193359" y="904.1018066406" type="line"/>
			<point x="1372.8304443359" y="869.1018066406" type="line"/>
			<point x="1308" y="496" type="line"/>
			<point x="1152.6463623047" y="3.9233398438" type="line"/>
			<point x="915.9836425781" y="3.9233398438" type="line"/>
			<point x="830" y="480" type="line"/>
			<point x="790" y="595" type="line"/>
			<point x="780" y="595" type="line"/>
			<point x="741" y="480" type="line"/>
			<point x="603.8466796875" y="3.9233398438" type="line"/>
		</contour>
	</outline>
	<anchor name="bottom" x="787" y="0"/>
	<anchor name="top" x="787" y="1000"/>
</glyph>
<glyph name="x" format="2">
	<unicode hex="0078"/>
	<advance width="1018"/>
	<outline>
		<contour>
			<point x="-8.5477294922" y="0" type="line"/>
			<point x="-8.5477294922" y="84" type="line"/>
			<point x="140.4234619141" y="118" type="line"/>
			<point x="444" y="480" type="line"/>
			<point x="118.8563232422" y="869.1018066406" type="line"/>
			<point x="21.3983154297" y="904.1018066406" type="line"/>
			<point x="21.3983154297" y="999.6018066406" type="line"/>
			<point x="390.7679443359" y="999.6018066406" type="line"/>
			<point x="390.7679443359" y="904.1018066406" type="line"/>
			<point x="323.431640625" y="867.1018066406" type="line"/>
			<point x="454" y="701" type="line"/>
			<point x="527" y="602" type="line"/>
			<point x="537" y="602" type="line"/>
			<point x="603" y="701" type="line"/>
			<point x="670.0545043945" y="873.1018066406" type="line"/>
			<point x="535.258972168" y="904.1018066406" type="line"/>
			<point x="535.258972168" y="999.6018066406" type="line"/>
			<point x="982.0101318359" y="999.6018066406" type="line"/>
			<point x="982.0101318359" y="904.1018066406" type="line"/>
			<point x="839.7955322266" y="871.1018066406" type="line"/>
			<point x="594" y="524" type="line"/>
			<point x="902.7725830078" y="120" type="line"/>
			<point x="1024.1628417969" y="84" type="line"/>
			<point x="1024.1628417969" y="0" type="line"/>
			<point x="568.7588500977" y="0" type="line"/>
			<point x="568.7588500977" y="84" type="line"/>
			<point x="659.0951538086" y="119" type="line"/>
			<point x="584" y="305" type="line"/>
			<point x="511" y="402" type="line"/>
			<point x="501" y="402" type="line"/>
			<point x="439" y="305" type="line"/>
			<point x="325.1644897461" y="120" type="line"/>
			<point x="458.2034301758" y="84" type="line"/>
			<point x="458.2034301758" y="0" type="line"/>
		</contour>
	</outline>
	<anchor name="bottom" x="522" y="0"/>
	<anchor name="top" x="522" y="1000"/>
	<anchor name="cy_descender" x="1043" y="80"/>
</glyph>
<glyph name="y" format="2">
	<unicode hex="0079"/>
	<advance width="1016"/>
	<outline>
		<contour>
			<point x="-16.5863037109" y="904.1018066406" type="line"/>
			<point x="-16.5863037109" y="999.6018066406" type="line"/>
			<point x="407.2828979492" y="999.6018066406" type="line"/>
			<point x="407.2828979492" y="904.1018066406" type="line"/>
			<point x="284.1900024414" y="868.1018066406" type="line"/>
			<point x="438.6011352539" y="501.0963745117" type="line"/>
			<point x="506.5109863281" y="273.8739013672" type="line"/>
			<point x="531.2516479492" y="186.8638305664" type="line"/>
			<point x="531.2516479492" y="186.8638305664" type="line"/>
			<point x="556.7641601562" y="270.3001708984" type="line"/>
			<point x="670.5321655273" y="573.6789550781" type="line"/>
			<point x="776.5580444336" y="868.1018066406" type="line"/>
			<point x="612.762512207" y="904.1018066406" type="line"/>
			<point x="612.762512207" y="999.6018066406" type="line"/>
			<point x="1093.7955932617" y="999.6018066406" type="line"/>
			<point x="1093.7955932617" y="904.1018066406" type="line"/>
			<point x="918.3112182617" y="872.1018066406" type="line"/>
			<point x="790.907043457" y="552.1774902344" type="line"/>
			<point x="543.6323852539" y="-168.9877319336" type="line" smooth="yes"/>
			<point x="489.7979125977" y="-346.9671630859"/>
			<point x="284.1556396484" y="-504.4813232422"/>
			<point x="169.2493896484" y="-504.4813232422" type="qcurve"/>
			<point x="-8.973815918" y="-428.0163574219" type="line"/>
			<point x="-8.973815918" y="-318.0736694336" type="line"/>
			<point x="125.6281738281" y="-325.0736694336" type="line" smooth="yes"/>
			<point x="186.1405639648" y="-329.0736694336"/>
			<point x="312.2388916016" y="-277.5783081055"/>
			<point x="347.3236694336" y="-215.9995117188" type="qcurve" smooth="yes"/>
			<point x="229.869140625" y="-1.9282226562" type="line"/>
			<point x="678.6831054688" y="-1.9282226562" type="line"/>
			<point x="256.1451416016" y="528.4517211914" type="line"/>
			<point x="117.6282958984" y="869.1018066406" type="line"/>
		</contour>
	</outline>
	<anchor name="bottom" x="782" y="0"/>
	<anchor name="top" x="524" y="1000"/>
</glyph>
<glyph name="z" format="2">
	<unicode hex="007A"/>
	<advance width="858"/>
	<outline>
		<contour>
			<point x="90.0191040039" y="0" type="line"/>
			<point x="90.0191040039" y="101.5927734375" type="line"/>
			<point x="568.3450927734" y="877.194152832" type="line"/>
			<point x="296.2589111328" y="877.194152832" type="line"/>
			<point x="207.4071044922" y="678.7192382812" type="line"/>
			<point x="102.4039306641" y="678.7192382812" type="line"/>
			<point x="102.4039306641" y="999.6018066406" type="line"/>
			<point x="753.0841674805" y="999.6018066406" type="line"/>
			<point x="753.0841674805" y="896.2683105469" type="line"/>
			<point x="286.1669311523" y="122.4076538086" type="line"/>
			<point x="616.0325927734" y="122.4076538086" type="line"/>
			<point x="716.8843994141" y="312.8825683594" type="line"/>
			<point x="820.8875732422" y="312.8825683594" type="line"/>
			<point x="820.8875732422" y="0" type="line"/>
		</contour>
	</outline>
	<anchor name="bottom" x="443" y="0"/>
	<anchor name="top" x="443" y="1000"/>
	<anchor name="_liga" x="0" y="0"/>
</glyph>
<glyph name="idotless" format="2">
	<unicode hex="0131"/>
	<advance width="632"/>
	<outline>
		<contour>
			<point x="92.0187988281" y="0" type="line"/>
			<point x="92.0187988281" y="81" type="line"/>
			<point x="242.5295410156" y="116" type="line"/>
			<point x="244.5295410156" y="502" type="line"/>
			<point x="243.5295410156" y="851.1018066406" type="line"/>
			<point x="91.0187988281" y="886.1018066406" type="line"/>
			<point x="91.0187988281" y="969.0886230469" type="line"/>
			<point x="302.5197753906" y="1004.6784667969" type="line"/>
			<point x="367.5197753906" y="1004.6784667969" type="line"/>
			<point x="422.5197753906" y="955.6784667969" type="line"/>
			<point x="415.5197753906" y="502" type="line"/>
			<point x="417.5197753906" y="116" type="line"/>
			<point x="556.0305175781" y="81" type="line"/>
			<point x="556.0305175781" y="0" type="line"/>
		</contour>
	</outline>
	<anchor name="bottom" x="320" y="0"/>
	<anchor name="top" x="320" y="1000"/>
	<anchor name="ogonek" x="513" y="0"/>
	<anchor name="liga" x="639" y="0"/>
</glyph>
